<mxfile host="app.diagrams.net" agent="Mozilla/5.0 (Windows NT 10.0; Win64; x64) AppleWebKit/537.36 (KHTML, like Gecko) Chrome/131.0.0.0 Safari/537.36" version="24.8.6">
  <diagram name="1 oldal" id="RXlgsFzh4fAoj3YQCDtV">
    <mxGraphModel dx="1114" dy="600" grid="1" gridSize="10" guides="1" tooltips="1" connect="1" arrows="1" fold="1" page="1" pageScale="1" pageWidth="827" pageHeight="1169" math="0" shadow="0">
      <root>
        <mxCell id="0" />
        <mxCell id="1" parent="0" />
        <mxCell id="7V68VcI1t-8MMACWyIm5-1" value="" style="rounded=0;whiteSpace=wrap;html=1;fillColor=none;" vertex="1" parent="1">
          <mxGeometry x="30" y="20" width="770" height="530" as="geometry" />
        </mxCell>
        <mxCell id="7V68VcI1t-8MMACWyIm5-2" style="edgeStyle=orthogonalEdgeStyle;rounded=0;orthogonalLoop=1;jettySize=auto;html=1;exitX=0.5;exitY=1;exitDx=0;exitDy=0;" edge="1" parent="1" source="7V68VcI1t-8MMACWyIm5-1" target="7V68VcI1t-8MMACWyIm5-1">
          <mxGeometry relative="1" as="geometry" />
        </mxCell>
        <mxCell id="7V68VcI1t-8MMACWyIm5-3" value="Ikon/oldal neve" style="rounded=0;whiteSpace=wrap;html=1;fillColor=none;" vertex="1" parent="1">
          <mxGeometry x="50" y="40" width="180" height="130" as="geometry" />
        </mxCell>
        <mxCell id="7V68VcI1t-8MMACWyIm5-4" value="Fejlec, NAV" style="rounded=0;whiteSpace=wrap;html=1;fillColor=none;" vertex="1" parent="1">
          <mxGeometry x="250" y="40" width="530" height="40" as="geometry" />
        </mxCell>
        <mxCell id="7V68VcI1t-8MMACWyIm5-5" value="Aside" style="rounded=0;whiteSpace=wrap;html=1;fillColor=none;" vertex="1" parent="1">
          <mxGeometry x="660" y="90" width="120" height="380" as="geometry" />
        </mxCell>
        <mxCell id="7V68VcI1t-8MMACWyIm5-6" style="edgeStyle=orthogonalEdgeStyle;rounded=0;orthogonalLoop=1;jettySize=auto;html=1;exitX=0.5;exitY=1;exitDx=0;exitDy=0;" edge="1" parent="1" source="7V68VcI1t-8MMACWyIm5-5" target="7V68VcI1t-8MMACWyIm5-5">
          <mxGeometry relative="1" as="geometry" />
        </mxCell>
        <mxCell id="7V68VcI1t-8MMACWyIm5-7" value="Footer (neveink)" style="rounded=0;whiteSpace=wrap;html=1;fillColor=none;" vertex="1" parent="1">
          <mxGeometry x="50" y="480" width="730" height="60" as="geometry" />
        </mxCell>
      </root>
    </mxGraphModel>
  </diagram>
</mxfile>
